<svg width="56" height="56" viewBox="0 0 56 56" fill="none" xmlns="http://www.w3.org/2000/svg">
<rect x="4" y="4" width="48" height="48" rx="24" fill="#304CE8" style="fill:#304CE8;fill:color(display-p3 0.1882 0.2980 0.9098);fill-opacity:1;"/>
<rect x="4" y="4" width="48" height="48" rx="24" stroke="#263BB5" style="stroke:#263BB5;stroke:color(display-p3 0.1490 0.2314 0.7098);stroke-opacity:1;" stroke-width="8"/>
<path d="M23.4528 18.7127C23.8276 17.7624 25.1724 17.7624 25.5472 18.7127L26.7085 21.6573C26.8229 21.9474 27.0526 22.1771 27.3427 22.2915L30.2873 23.4528C31.2376 23.8276 31.2376 25.1724 30.2873 25.5472L27.3427 26.7085C27.0526 26.8229 26.8229 27.0526 26.7085 27.3427L25.5472 30.2873C25.1724 31.2376 23.8276 31.2376 23.4528 30.2873L22.2915 27.3427C22.1771 27.0526 21.9474 26.8229 21.6573 26.7085L18.7127 25.5472C17.7624 25.1724 17.7624 23.8276 18.7127 23.4528L21.6573 22.2915C21.9474 22.1771 22.1771 21.9474 22.2915 21.6573L23.4528 18.7127Z" fill="white" style="fill:white;fill-opacity:1;"/>
<path d="M32.9245 29.3916C33.1305 28.8695 33.8695 28.8695 34.0755 29.3916L34.9761 31.6753C35.039 31.8348 35.1652 31.961 35.3247 32.0239L37.6084 32.9245C38.1305 33.1305 38.1305 33.8695 37.6084 34.0755L35.3247 34.9761C35.1652 35.039 35.039 35.1652 34.9761 35.3247L34.0755 37.6084C33.8695 38.1305 33.1305 38.1305 32.9245 37.6084L32.0239 35.3247C31.961 35.1652 31.8348 35.039 31.6753 34.9761L29.3916 34.0755C28.8695 33.8695 28.8695 33.1305 29.3916 32.9245L31.6753 32.0239C31.8348 31.961 31.961 31.8348 32.0239 31.6753L32.9245 29.3916Z" fill="white" style="fill:white;fill-opacity:1;"/>
</svg>
