<svg width="56" height="56" viewBox="0 0 56 56" fill="none" xmlns="http://www.w3.org/2000/svg">
<rect x="4" y="4" width="48" height="48" rx="24" fill="#304CE8" style="fill:#304CE8;fill:color(display-p3 0.1882 0.2980 0.9098);fill-opacity:1;"/>
<rect x="4" y="4" width="48" height="48" rx="24" stroke="#263BB5" style="stroke:#263BB5;stroke:color(display-p3 0.1490 0.2314 0.7098);stroke-opacity:1;" stroke-width="8"/>
<path fill-rule="evenodd" clip-rule="evenodd" d="M19.1716 35.8284C20.3431 37 22.2288 37 26 37H29.9292C29.6543 36.5272 29.5 35.9792 29.5 35.4118C29.5 34.5958 29.8191 33.8199 30.3571 33.25H29.5C29.0858 33.25 28.75 32.9142 28.75 32.5C28.75 32.0858 29.0858 31.75 29.5 31.75H31.4282C31.9395 30.4601 33.1549 29.5 34.6667 29.5C36.2273 29.5 37.4762 30.5283 37.955 31.8805L37.9694 31.8905C38 31.0727 38 30.1194 38 29V28.75H18V29C18 32.7712 18 34.6569 19.1716 35.8284ZM22 34.25C21.5858 34.25 21.25 33.9142 21.25 33.5L21.25 31.5C21.25 31.0858 21.5858 30.75 22 30.75C22.4142 30.75 22.75 31.0858 22.75 31.5V33.5C22.75 33.9142 22.4142 34.25 22 34.25ZM25 34.25C24.5858 34.25 24.25 33.9142 24.25 33.5V31.5C24.25 31.0858 24.5858 30.75 25 30.75C25.4142 30.75 25.75 31.0858 25.75 31.5V33.5C25.75 33.9142 25.4142 34.25 25 34.25Z" fill="white" style="fill:white;fill-opacity:1;"/>
<path fill-rule="evenodd" clip-rule="evenodd" d="M19.1716 20.1716C18 21.3431 18 23.2288 18 27V27.25H38V27C38 23.2288 38 21.3431 36.8284 20.1716C35.6569 19 33.7712 19 30 19H26C22.2288 19 20.3431 19 19.1716 20.1716ZM25 25.25C24.5858 25.25 24.25 24.9142 24.25 24.5V22.5C24.25 22.0858 24.5858 21.75 25 21.75C25.4142 21.75 25.75 22.0858 25.75 22.5V24.5C25.75 24.9142 25.4142 25.25 25 25.25ZM21.25 24.5C21.25 24.9142 21.5858 25.25 22 25.25C22.4142 25.25 22.75 24.9142 22.75 24.5V22.5C22.75 22.0858 22.4142 21.75 22 21.75C21.5858 21.75 21.25 22.0858 21.25 22.5L21.25 24.5ZM28.75 23.5C28.75 23.0858 29.0858 22.75 29.5 22.75H34C34.4142 22.75 34.75 23.0858 34.75 23.5C34.75 23.9142 34.4142 24.25 34 24.25H29.5C29.0858 24.25 28.75 23.9142 28.75 23.5Z" fill="white" style="fill:white;fill-opacity:1;"/>
<path fill-rule="evenodd" clip-rule="evenodd" d="M36.6543 32.8806C36.543 31.8226 35.6956 31 34.6667 31C33.8216 31 33.0989 31.555 32.806 32.3395C32.7161 32.5804 32.6667 32.8429 32.6667 33.1176C32.6667 33.3763 32.7105 33.6242 32.7907 33.8533C32.6966 33.8338 32.5994 33.8235 32.5 33.8235C32.0601 33.8235 31.6644 34.024 31.3901 34.3434C31.1477 34.6255 31 35.0004 31 35.4118C31 36.2889 31.6716 37 32.5 37H36C37.1046 37 38 36.0519 38 34.8824C38 33.9554 37.4375 33.1676 36.6543 32.8806Z" fill="white" style="fill:white;fill-opacity:1;"/>
<path d="M36.6543 32.8806C36.543 31.8226 35.6956 31 34.6667 31C33.8216 31 33.0989 31.555 32.806 32.3395C32.7161 32.5804 32.6667 32.8429 32.6667 33.1176C32.6667 33.3763 32.7105 33.6242 32.7907 33.8533C32.6966 33.8338 32.5994 33.8235 32.5 33.8235C32.0601 33.8235 31.6644 34.024 31.3901 34.3434C31.1477 34.6255 31 35.0004 31 35.4118C31 36.2889 31.6716 37 32.5 37H36C37.1046 37 38 36.0519 38 34.8824C38 33.9554 37.4375 33.1676 36.6543 32.8806Z" fill="white" style="fill:white;fill-opacity:1;"/>
</svg>
