<svg width="56" height="56" viewBox="0 0 56 56" fill="none" xmlns="http://www.w3.org/2000/svg">
<rect x="4" y="4" width="48" height="48" rx="24" fill="#304CE8" style="fill:#304CE8;fill:color(display-p3 0.1882 0.2980 0.9098);fill-opacity:1;"/>
<rect x="4" y="4" width="48" height="48" rx="24" stroke="#263BB5" style="stroke:#263BB5;stroke:color(display-p3 0.1490 0.2314 0.7098);stroke-opacity:1;" stroke-width="8"/>
<path d="M36 29.75C36 29.3358 35.6642 29 35.25 29H32.25C31.8358 29 31.5 29.3358 31.5 29.75V36.5H30V20.25C30 19.5217 29.9984 19.0509 29.9518 18.704C29.908 18.3787 29.8374 18.2768 29.7803 18.2197C29.7232 18.1626 29.6213 18.092 29.296 18.0482C28.9491 18.0016 28.4783 18 27.75 18C27.0217 18 26.5509 18.0016 26.204 18.0482C25.8787 18.092 25.7768 18.1626 25.7197 18.2197C25.6626 18.2768 25.592 18.3787 25.5482 18.704C25.5016 19.0509 25.5 19.5217 25.5 20.25V36.5H24V24.75C24 24.3358 23.6642 24 23.25 24H20.25C19.8358 24 19.5 24.3358 19.5 24.75V36.5H18H17.75C17.3358 36.5 17 36.8358 17 37.25C17 37.6642 17.3358 38 17.75 38H37.75C38.1642 38 38.5 37.6642 38.5 37.25C38.5 36.8358 38.1642 36.5 37.75 36.5H37.5H36V29.75Z" fill="white" style="fill:white;fill-opacity:1;"/>
</svg>
