<svg width="56" height="56" viewBox="0 0 56 56" fill="none" xmlns="http://www.w3.org/2000/svg">
<rect x="4" y="4" width="48" height="48" rx="24" fill="#304CE8" style="fill:#304CE8;fill:color(display-p3 0.1882 0.2980 0.9098);fill-opacity:1;"/>
<rect x="4" y="4" width="48" height="48" rx="24" stroke="#263BB5" style="stroke:#263BB5;stroke:color(display-p3 0.1490 0.2314 0.7098);stroke-opacity:1;" stroke-width="8"/>
<path fill-rule="evenodd" clip-rule="evenodd" d="M20.1716 19.1716C19 20.3431 19 22.2288 19 26V30C19 33.7712 19 35.6569 20.1716 36.8284C21.3431 38 23.2288 38 27 38H29C32.7712 38 34.6569 38 35.8284 36.8284C37 35.6569 37 33.7712 37 30V26C37 22.2288 37 20.3431 35.8284 19.1716C34.6569 18 32.7712 18 29 18H27C23.2288 18 21.3431 18 20.1716 19.1716ZM23.25 24C23.25 23.5858 23.5858 23.25 24 23.25H32C32.4142 23.25 32.75 23.5858 32.75 24C32.75 24.4142 32.4142 24.75 32 24.75H24C23.5858 24.75 23.25 24.4142 23.25 24ZM23.25 28C23.25 27.5858 23.5858 27.25 24 27.25H32C32.4142 27.25 32.75 27.5858 32.75 28C32.75 28.4142 32.4142 28.75 32 28.75H24C23.5858 28.75 23.25 28.4142 23.25 28ZM24 31.25C23.5858 31.25 23.25 31.5858 23.25 32C23.25 32.4142 23.5858 32.75 24 32.75H29C29.4142 32.75 29.75 32.4142 29.75 32C29.75 31.5858 29.4142 31.25 29 31.25H24Z" fill="white" style="fill:white;fill-opacity:1;"/>
</svg>
