<svg width="56" height="56" viewBox="0 0 56 56" fill="none" xmlns="http://www.w3.org/2000/svg">
<rect x="4" y="4" width="48" height="48" rx="24" fill="#304CE8" style="fill:#304CE8;fill:color(display-p3 0.1882 0.2980 0.9098);fill-opacity:1;"/>
<rect x="4" y="4" width="48" height="48" rx="24" stroke="#263BB5" style="stroke:#263BB5;stroke:color(display-p3 0.1490 0.2314 0.7098);stroke-opacity:1;" stroke-width="8"/>
<path fill-rule="evenodd" clip-rule="evenodd" d="M20 25C20.4142 25 20.75 25.3358 20.75 25.75V26.75C20.75 30.7541 23.9959 34 28 34C32.0041 34 35.25 30.7541 35.25 26.75V25.75C35.25 25.3358 35.5858 25 36 25C36.4142 25 36.75 25.3358 36.75 25.75V26.75C36.75 31.3298 33.2314 35.0879 28.75 35.4683V37.75C28.75 38.1642 28.4142 38.5 28 38.5C27.5858 38.5 27.25 38.1642 27.25 37.75V35.4683C22.7686 35.0879 19.25 31.3298 19.25 26.75V25.75C19.25 25.3358 19.5858 25 20 25Z" fill="white" style="fill:white;fill-opacity:1;"/>
<path fill-rule="evenodd" clip-rule="evenodd" d="M28 18C24.8244 18 22.25 20.5744 22.25 23.75V26.75C22.25 29.9256 24.8244 32.5 28 32.5C31.1756 32.5 33.75 29.9256 33.75 26.75V23.75C33.75 20.5744 31.1756 18 28 18ZM30 27.5C30.4142 27.5 30.75 27.1642 30.75 26.75C30.75 26.3358 30.4142 26 30 26H26C25.5858 26 25.25 26.3358 25.25 26.75C25.25 27.1642 25.5858 27.5 26 27.5H30ZM29.75 23.75C29.75 24.1642 29.4142 24.5 29 24.5H27C26.5858 24.5 26.25 24.1642 26.25 23.75C26.25 23.3358 26.5858 23 27 23H29C29.4142 23 29.75 23.3358 29.75 23.75Z" fill="white" style="fill:white;fill-opacity:1;"/>
</svg>
