<svg width="56" height="56" viewBox="0 0 56 56" fill="none" xmlns="http://www.w3.org/2000/svg">
<rect x="4" y="4" width="48" height="48" rx="24" fill="#304CE8" style="fill:#304CE8;fill:color(display-p3 0.1882 0.2980 0.9098);fill-opacity:1;"/>
<rect x="4" y="4" width="48" height="48" rx="24" stroke="#263BB5" style="stroke:#263BB5;stroke:color(display-p3 0.1490 0.2314 0.7098);stroke-opacity:1;" stroke-width="8"/>
<path fill-rule="evenodd" clip-rule="evenodd" d="M30.0079 35.0029L30.0137 33C30.0137 32.4477 30.4625 32 31.0162 32C31.5698 32 32.0187 32.4477 32.0187 33V34.9765C32.0187 35.458 32.0187 35.6988 32.1731 35.8464C32.3275 35.9941 32.5637 35.984 33.0362 35.964C34.8991 35.8852 36.0437 35.6332 36.8504 34.8284C37.6591 34.0218 37.911 32.8766 37.9894 31.0105C38.005 30.6405 38.0128 30.4554 37.9437 30.332C37.8745 30.2085 37.5987 30.0545 37.0469 29.7463C36.4341 29.4041 36.0199 28.7503 36.0199 28C36.0199 27.2497 36.4341 26.5959 37.0469 26.2537C37.5987 25.9455 37.8745 25.7915 37.9437 25.668C38.0128 25.5446 38.005 25.3595 37.9894 24.9895C37.911 23.1234 37.6591 21.9782 36.8504 21.1716C35.9727 20.296 34.6952 20.0748 32.5278 20.0189C32.2482 20.0117 32.0187 20.2372 32.0187 20.5162V23C32.0187 23.5523 31.5698 24 31.0162 24C30.4625 24 30.0137 23.5523 30.0137 23L30.0064 20.4986C30.0056 20.223 29.7814 20 29.5052 20H25.995C22.2144 20 20.3241 20 19.1496 21.1716C18.3409 21.9782 18.089 23.1234 18.0106 24.9895C17.995 25.3595 17.9872 25.5446 18.0563 25.668C18.1254 25.7915 18.4013 25.9455 18.9531 26.2537C19.5659 26.5959 19.9801 27.2497 19.9801 28C19.9801 28.7503 19.5659 29.4041 18.9531 29.7463C18.4013 30.0545 18.1254 30.2085 18.0563 30.332C17.9872 30.4554 17.995 30.6405 18.0106 31.0105C18.089 32.8766 18.3409 34.0218 19.1496 34.8284C20.3241 36 22.2144 36 25.995 36H29.0054C29.4767 36 29.7124 36 29.8591 35.8541C30.0058 35.7081 30.0065 35.4731 30.0079 35.0029ZM32.0187 29V27C32.0187 26.4477 31.5698 26 31.0162 26C30.4625 26 30.0137 26.4477 30.0137 27V29C30.0137 29.5523 30.4625 30 31.0162 30C31.5698 30 32.0187 29.5523 32.0187 29Z" fill="white" style="fill:white;fill-opacity:1;"/>
</svg>
