<svg width="56" height="56" viewBox="0 0 56 56" fill="none" xmlns="http://www.w3.org/2000/svg">
<rect x="4" y="4" width="48" height="48" rx="24" fill="#304CE8" style="fill:#304CE8;fill:color(display-p3 0.1882 0.2980 0.9098);fill-opacity:1;"/>
<rect x="4" y="4" width="48" height="48" rx="24" stroke="#263BB5" style="stroke:#263BB5;stroke:color(display-p3 0.1490 0.2314 0.7098);stroke-opacity:1;" stroke-width="8"/>
<path fill-rule="evenodd" clip-rule="evenodd" d="M18.0273 27.25C18.4109 22.0775 22.7291 18 27.9996 18C27.1688 18 26.429 18.3642 25.8204 18.9211C25.2149 19.4753 24.7032 20.2488 24.2893 21.1632C23.873 22.0829 23.5496 23.1587 23.3308 24.3261C23.1553 25.2619 23.0485 26.2485 23.0129 27.25H18.0273ZM18.0273 28.75H23.0129C23.0485 29.7515 23.1553 30.7381 23.3308 31.6739C23.5496 32.8413 23.873 33.9171 24.2893 34.8368C24.7032 35.7512 25.2149 36.5247 25.8204 37.0789C26.429 37.6358 27.1688 38 27.9996 38C22.7291 38 18.4109 33.9226 18.0273 28.75Z" fill="white" style="fill:white;fill-opacity:1;"/>
<path d="M27.9996 19.3953C27.7246 19.3953 27.3694 19.5124 26.9562 19.8904C26.5401 20.2713 26.1235 20.8681 25.7554 21.6814C25.3897 22.4892 25.0928 23.4644 24.8885 24.5542C24.7276 25.4124 24.6278 26.3222 24.5927 27.25H31.4066C31.3715 26.3222 31.2717 25.4124 31.1108 24.5542C30.9065 23.4644 30.6096 22.4892 30.2439 21.6814C29.8758 20.8681 29.4592 20.2713 29.043 19.8904C28.6299 19.5124 28.2747 19.3953 27.9996 19.3953Z" fill="white" style="fill:white;fill-opacity:1;"/>
<path d="M24.8885 31.4458C25.0928 32.5356 25.3897 33.5108 25.7554 34.3186C26.1235 35.1319 26.5401 35.7287 26.9562 36.1096C27.3694 36.4876 27.7246 36.6047 27.9996 36.6047C28.2746 36.6047 28.6299 36.4876 29.043 36.1096C29.4592 35.7287 29.8758 35.1319 30.2439 34.3186C30.6096 33.5108 30.9065 32.5356 31.1108 31.4458C31.2717 30.5876 31.3715 29.6778 31.4066 28.75H24.5927C24.6278 29.6778 24.7276 30.5876 24.8885 31.4458Z" fill="white" style="fill:white;fill-opacity:1;"/>
<path d="M27.9996 18C28.8305 18 29.5703 18.3642 30.1788 18.9211C30.7844 19.4753 31.2961 20.2488 31.7099 21.1632C32.1263 22.0829 32.4496 23.1587 32.6685 24.3261C32.844 25.2619 32.9507 26.2485 32.9863 27.25H37.9719C37.5884 22.0775 33.2702 18 27.9996 18Z" fill="white" style="fill:white;fill-opacity:1;"/>
<path d="M32.6685 31.6739C32.4496 32.8413 32.1263 33.9171 31.7099 34.8368C31.2961 35.7512 30.7844 36.5247 30.1788 37.0789C29.5703 37.6358 28.8305 38 27.9996 38C33.2702 38 37.5884 33.9226 37.9719 28.75H32.9863C32.9507 29.7515 32.844 30.7381 32.6685 31.6739Z" fill="white" style="fill:white;fill-opacity:1;"/>
</svg>
