<svg width="56" height="56" viewBox="0 0 56 56" fill="none" xmlns="http://www.w3.org/2000/svg">
<rect x="4" y="4" width="48" height="48" rx="24" fill="#304CE8" style="fill:#304CE8;fill:color(display-p3 0.1882 0.2980 0.9098);fill-opacity:1;"/>
<rect x="4" y="4" width="48" height="48" rx="24" stroke="#263BB5" style="stroke:#263BB5;stroke:color(display-p3 0.1490 0.2314 0.7098);stroke-opacity:1;" stroke-width="8"/>
<path fill-rule="evenodd" clip-rule="evenodd" d="M38 28C38 33.5228 33.5228 38 28 38C22.4772 38 18 33.5228 18 28C18 22.4772 22.4772 18 28 18C33.5228 18 38 22.4772 38 28ZM21.4606 27.0833C21.8333 23.7999 24.624 21.25 28.0096 21.25C30.148 21.25 32.0489 22.2679 33.2521 23.8425C33.5036 24.1716 33.4406 24.6423 33.1115 24.8938C32.7824 25.1453 32.3117 25.0823 32.0602 24.7532C31.1289 23.5344 29.6613 22.75 28.0096 22.75C25.4521 22.75 23.3364 24.6322 22.9733 27.0833H23.3365C23.64 27.0833 23.9135 27.2662 24.0295 27.5466C24.1456 27.8269 24.0812 28.1496 23.8665 28.364L22.6982 29.5307C22.4054 29.8231 21.9311 29.8231 21.6383 29.5307L20.47 28.364C20.2553 28.1496 20.191 27.8269 20.307 27.5466C20.423 27.2662 20.6966 27.0833 21 27.0833H21.4606ZM34.3617 26.4693C34.0689 26.1769 33.5946 26.1769 33.3018 26.4693L32.1335 27.636C31.9188 27.8504 31.8545 28.1731 31.9705 28.4534C32.0865 28.7338 32.3601 28.9167 32.6635 28.9167H33.0267C32.6636 31.3678 30.5479 33.25 27.9905 33.25C26.3464 33.25 24.8848 32.4729 23.9529 31.2638C23.7 30.9358 23.2291 30.8748 22.901 31.1277C22.5729 31.3806 22.512 31.8515 22.7649 32.1796C23.9689 33.7416 25.8621 34.75 27.9905 34.75C31.376 34.75 34.1667 32.2001 34.5395 28.9167H35C35.3035 28.9167 35.577 28.7338 35.693 28.4534C35.8091 28.1731 35.7447 27.8504 35.53 27.636L34.3617 26.4693Z" fill="white" style="fill:white;fill-opacity:1;"/>
</svg>
