<svg width="56" height="56" viewBox="0 0 56 56" fill="none" xmlns="http://www.w3.org/2000/svg">
<rect x="4" y="4" width="48" height="48" rx="24" fill="#304CE8" style="fill:#304CE8;fill:color(display-p3 0.1882 0.2980 0.9098);fill-opacity:1;"/>
<rect x="4" y="4" width="48" height="48" rx="24" stroke="#263BB5" style="stroke:#263BB5;stroke:color(display-p3 0.1490 0.2314 0.7098);stroke-opacity:1;" stroke-width="8"/>
<path fill-rule="evenodd" clip-rule="evenodd" d="M19.4645 19.4645C18 20.9289 18 23.286 18 28C18 32.714 18 35.0711 19.4645 36.5355C20.9289 38 23.286 38 28 38C32.714 38 35.0711 38 36.5355 36.5355C38 35.0711 38 32.714 38 28C38 23.286 38 20.9289 36.5355 19.4645C35.0711 18 32.714 18 28 18C23.286 18 20.9289 18 19.4645 19.4645ZM29.75 26C29.75 26.4142 30.0858 26.75 30.5 26.75H31.1893L29.1768 28.7626C29.0791 28.8602 28.9209 28.8602 28.8232 28.7626L27.2374 27.1768C26.554 26.4934 25.446 26.4934 24.7626 27.1768L22.4697 29.4697C22.1768 29.7626 22.1768 30.2374 22.4697 30.5303C22.7626 30.8232 23.2374 30.8232 23.5303 30.5303L25.8232 28.2374C25.9209 28.1398 26.0791 28.1398 26.1768 28.2374L27.7626 29.8232C28.446 30.5066 29.554 30.5066 30.2374 29.8232L32.25 27.8107V28.5C32.25 28.9142 32.5858 29.25 33 29.25C33.4142 29.25 33.75 28.9142 33.75 28.5V26C33.75 25.5858 33.4142 25.25 33 25.25H30.5C30.0858 25.25 29.75 25.5858 29.75 26Z" fill="white" style="fill:white;fill-opacity:1;"/>
</svg>
